<?xml version="1.0" encoding="UTF-8" standalone="no"?>
<svg
   xmlns:dc="http://purl.org/dc/elements/1.1/"
   xmlns:cc="http://creativecommons.org/ns#"
   xmlns:rdf="http://www.w3.org/1999/02/22-rdf-syntax-ns#"
   xmlns:svg="http://www.w3.org/2000/svg"
   xmlns="http://www.w3.org/2000/svg"
   xmlns:sodipodi="http://sodipodi.sourceforge.net/DTD/sodipodi-0.dtd"
   xmlns:inkscape="http://www.inkscape.org/namespaces/inkscape"
   height="511pt"
   viewBox="-12 0 511 511.99956"
   width="511pt"
   version="1.1"
   id="svg16"
   sodipodi:docname="duck_left.svg"
   inkscape:version="1.0.2 (1.0.2+r75+1)">
  <metadata
     id="metadata22">
    <rdf:RDF>
      <cc:Work
         rdf:about="">
        <dc:format>image/svg+xml</dc:format>
        <dc:type
           rdf:resource="http://purl.org/dc/dcmitype/StillImage" />
        <dc:title></dc:title>
      </cc:Work>
    </rdf:RDF>
  </metadata>
  <defs
     id="defs20" />
  <sodipodi:namedview
     pagecolor="#ffffff"
     bordercolor="#666666"
     borderopacity="1"
     objecttolerance="10"
     gridtolerance="10"
     guidetolerance="10"
     inkscape:pageopacity="0"
     inkscape:pageshadow="2"
     inkscape:window-width="1360"
     inkscape:window-height="719"
     id="namedview18"
     showgrid="false"
     inkscape:zoom="0.58325931"
     inkscape:cx="365.48082"
     inkscape:cy="396.9093"
     inkscape:window-x="0"
     inkscape:window-y="25"
     inkscape:window-maximized="1"
     inkscape:current-layer="svg16" />
  <path
     d="m 70.745456,177.03125 c 0,0 -80.957032,63.87891 -69.0507817,172.00391 11.9023437,108.1289 89.8476567,165.27343 194.9296857,162.89453 105.08203,-2.38281 221.00391,-82.58985 260.2461,-169.79297 54.68359,-121.52344 7.14453,-282.421876 7.14453,-282.421876 0,0 -117.28125,-33.457032 -260.82422,40.515626 C 76.847018,165.34375 70.745456,177.03125 70.745456,177.03125 Z m 0,0"
     fill="#edc900"
     id="path2" />
  <path
     d="m 37.409518,159.21484 c 0,87.9336 71.281252,159.21875 159.214842,159.21875 87.9336,0 159.21485,-71.28515 159.21485,-159.21875 C 355.83921,71.285156 284.55796,0 196.62436,0 108.69077,0 37.409518,71.285156 37.409518,159.21484 Z m 0,0"
     fill="#ffd800"
     id="path4" />
  <path
     d="m 55.792331,235.63281 c 0,0 -10.828125,22.63281 -23.632813,33.7461 -12.804687,11.10937 -20.652344,29.89843 5.25,54.5039 15.867188,15.07422 42.753906,25.39844 58.628906,19.84375 15.874996,-5.55468 38.894536,-51.32812 59.531246,-52.38672 13.5,-0.6914 12.69922,-8.73046 5.55469,-17.46093 -7.14453,-8.73047 -22.61719,-10.72657 -31.34765,-30.57032 -8.73047,-19.83984 -28.60938,-27.43359 -40.679692,-26.90625 -12.074218,0.53125 -24.050781,-4.4414 -27.144531,-2.77734 -8.074219,4.33984 -6.160156,22.00781 -6.160156,22.00781 z m 0,0"
     fill="#cc8200"
     id="path6" />
  <path
     d="m 182.55796,248.73828 c 0,11.39844 9.23828,20.64063 20.63671,20.64063 11.39454,0 20.63672,-9.24219 20.63672,-20.64063 0,-11.39453 -9.24218,-20.63672 -20.63672,-20.63672 -11.39843,0 -20.63671,9.24219 -20.63671,20.63672 z m 0,0"
     fill="#2a353c"
     id="path8" />
  <path
     d="m 43.655612,176.51562 c 0,-11.39843 3.796875,-20.63671 8.484375,-20.63671 4.6875,0 8.488281,9.23828 8.488281,20.63671 0,11.39844 -3.800781,20.63672 -8.488281,20.63672 -4.6875,0 -8.484375,-9.23828 -8.484375,-20.63672 z m 0,0"
     fill="#2a353c"
     id="path10" />
  <path
     d="M 286.74546,334.62891 481.17514,207.64062 c 0,0 27.90235,92.59375 -25.4414,152.14844 -53.33985,59.55469 -96.33594,81.25391 -137.48828,86.28125 -11.14454,1.35938 -21.82422,-1.66015 -31.32032,-7.53515 -38.11328,-23.59375 -37.71093,-79.39454 -0.17968,-103.90625 z m 0,0"
     fill="#ffd800"
     id="path12" />
  <path
     d="M 159.26108,41.054688 C 168.05796,55.257812 157.66733,77.625 136.05405,91.011719 114.44077,104.40234 89.788424,103.74219 80.99155,89.539062 72.190768,75.335938 82.581393,52.96875 104.19467,39.582031 c 21.61329,-13.390625 46.26954,-12.730469 55.06641,1.472657 z m 0,0"
     fill="#faec8b"
     id="path14" />
</svg>
