<svg height="511pt" viewBox="0 -3 511.99934 511" width="511pt" xmlns="http://www.w3.org/2000/svg"><path d="m142.011719 104.90625s-19.484375-15.152344-52.675781 0c-33.191407 15.15625-21.40625 67.347656-50.75 78.410156-14.015626 5.285156-24.410157 4.753906-31.445313 2.757813-4.457031-1.265625-8.457031 3.0625-6.730469 7.363281 8.742188 21.757812 30.296875 60.472656 68.480469 42.792969 51.953125-24.050781 73.121094-131.324219 73.121094-131.324219zm0 0" fill="#2b5d99"/><path d="m385.417969 48.726562 7.09375-48.226562s31.96875 19.414062 41.851562 62.171875c9.882813 42.761719-48.945312-13.945313-48.945312-13.945313zm0 0" fill="#bd4b1e"/><path d="m495.097656 149.742188c-9.140625-15.390626-59.167968-93.800782-80.816406-101.980469-21.648438-8.175781-78.890625 17.320312-88.511719 38.964843-6.761719 15.214844-18.492187 80.542969-18.492187 80.542969l-90.742188-52.390625c-32.535156-18.78125-72.753906-19.785156-105.511718-1.398437-36.621094 20.554687-59.242188 59.257812-59.242188 101.175781v37.152344l17.664062 124.140625c.847657 6.984375 4.929688 13.164062 11.023438 16.679687 3.636719 2.101563 15.183594 3.929688 21.984375 0l4.984375-2.875c7.914062-4.570312 13.148438-12.640625 14.105469-21.730468 1.835937-17.417969 2.613281-36.644532 16.375-42.21875 10.429687-4.222657 20.203125-4.808594 33.191406 2.648437 20.445313 12.265625 65.183594 52.671875 71.359375 69.746094 5.109375 54.761719 3.203125 105.59375 36.742188 107.394531 35.671874 1.917969 31.695312-40.191406 35.238281-100.21875 1.300781-.425781 21.753906-12.777344 31.289062-13.910156 2.058594 19.246094 8.964844 61.035156 26.644531 61.980468 29.390626 1.566407 33.597657-36.242187 33.597657-95.984374 7.871093-8.164063 15.902343-76.957032 13.707031-104.707032.003906 0 28.230469-41.65625 55.167969-64.265625 26.941406-22.609375 29.378906-23.351562 20.242187-38.746093zm0 0" fill="#bd4b1e"/><path d="m423.902344 98.171875 36.121094 47.363281c2.519531 3.304688 7.101562 4.222656 10.703124 2.144532 4.070313-2.351563 5.363282-7.617188 2.84375-11.585938l-25.375-39.984375zm0 0" fill="#fff5ae"/><path d="m264.4375 122.804688s16.59375 18.039062 28.140625 10.101562c11.542969-7.9375 15.152344-42.210938 25.613281-66.742188 10.464844-24.535156 43.65625-40.046874 64.21875-41.851562 20.566406-1.804688 46.179688 19.480469 58.449219 36.078125 12.265625 16.59375 32.109375 27.417969 32.109375 27.417969s-9.742188 19.84375-40.40625 18.039062c-30.667969-1.804687-66.386719-35.71875-66.386719-35.71875s-35.355469 9.742188-39.324219 44.375c-2.585937 22.570313-3.824218 43.351563-15.082031 53.425782-11.253906 10.074218-53.105469 4.664062-47.332031-45.125zm0 0" fill="#2b5d99"/><path d="m374.835938 80.953125s-13.710938-25.734375-23.089844-38.242187c-9.382813-12.507813-15.15625-15.632813-15.15625-15.632813s-12.023438 36.800781-3.847656 61.8125c8.179687 25.015625 42.09375-7.9375 42.09375-7.9375zm0 0" fill="#bd4b1e"/><path d="m338.277344 41.507812s10.136718 18.523438 14.085937 31.269532c3.953125 12.75-7.628906 20.8125-14.085937 16.835937-6.460938-3.976562 0-48.105469 0-48.105469zm0 0" fill="#ef5f26"/><path d="m498.945312 243.066406c23.222657-19.488281 10.339844-63.269531.488282-84.84375-11.046875.054688-26.457032 2.890625-44.265625 13.917969-30.738281 19.035156-42.101563 55-35.476563 80.613281 0 0 52.3125 12.921875 79.253906-9.6875zm0 0" fill="#fff5ae"/><path d="m393.863281 138.59375c0 6.0625-4.910156 10.972656-10.972656 10.972656-6.058594 0-10.972656-4.910156-10.972656-10.972656 0-6.058594 4.914062-10.96875 10.972656-10.96875 6.0625 0 10.972656 4.910156 10.972656 10.96875zm0 0" fill="#162f4d"/><g fill="#a8431b"><path d="m371.917969 237.292969c-20.171875-9.621094-36.515625-18.761719-36.515625-18.761719s43.371094 63.300781 83.28125 74.027344c1.289062-15.386719 1.773437-30.105469 1.007812-39.804688 0 0-27.59375-5.839844-47.773437-15.460937zm0 0"/><path d="m121.546875 368.023438c.777344-7.378907 1.375-15.074219 2.839844-21.925782-9.492188 4.550782-23.078125 7.988282-38.898438 5.445313-9.210937-1.480469-16.316406-7.085938-21.328125-12.75l5.285156 37.160156c.847657 6.984375 4.933594 13.160156 11.027344 16.679687 3.632813 2.097657 15.179688 3.925782 21.980469 0l4.984375-2.878906c7.914062-4.570312 13.148438-12.640625 14.109375-21.730468zm0 0"/><path d="m397.433594 397.023438c-12.015625 11.59375-29.4375 16.054687-45.34375 10.980468-1.554688-.496094-2.988282-1.058594-4.296875-1.667968 3.464843 20.421874 10.703125 46.367187 24.589843 47.109374 23.738282 1.265626 31.046876-23.164062 32.980469-64.078124zm0 0"/><path d="m246.566406 447.613281c3.363282 32.625 9.730469 56.75 32.648438 57.980469 30.15625 1.625 31.972656-28.230469 33.957031-73.773438l-4.226563 4.171876c-13.445312 13.265624-32.605468 19.441406-51.097656 15.605468-4.339844-.902344-8.246094-2.234375-11.28125-3.984375zm0 0"/></g></svg>