<?xml version="1.0" encoding="UTF-8" standalone="no"?>
<svg
   xmlns:dc="http://purl.org/dc/elements/1.1/"
   xmlns:cc="http://creativecommons.org/ns#"
   xmlns:rdf="http://www.w3.org/1999/02/22-rdf-syntax-ns#"
   xmlns:svg="http://www.w3.org/2000/svg"
   xmlns="http://www.w3.org/2000/svg"
   xmlns:sodipodi="http://sodipodi.sourceforge.net/DTD/sodipodi-0.dtd"
   xmlns:inkscape="http://www.inkscape.org/namespaces/inkscape"
   height="511pt"
   viewBox="0 -3 511.99934 511"
   width="511pt"
   version="1.1"
   id="svg30"
   sodipodi:docname="horse_left.svg"
   inkscape:version="1.0.2 (1.0.2+r75+1)">
  <metadata
     id="metadata36">
    <rdf:RDF>
      <cc:Work
         rdf:about="">
        <dc:format>image/svg+xml</dc:format>
        <dc:type
           rdf:resource="http://purl.org/dc/dcmitype/StillImage" />
        <dc:title></dc:title>
      </cc:Work>
    </rdf:RDF>
  </metadata>
  <defs
     id="defs34" />
  <sodipodi:namedview
     pagecolor="#ffffff"
     bordercolor="#666666"
     borderopacity="1"
     objecttolerance="10"
     gridtolerance="10"
     guidetolerance="10"
     inkscape:pageopacity="0"
     inkscape:pageshadow="2"
     inkscape:window-width="720"
     inkscape:window-height="480"
     id="namedview32"
     showgrid="false"
     inkscape:zoom="0.41242661"
     inkscape:cx="169.3004"
     inkscape:cy="387.32274"
     inkscape:window-x="0"
     inkscape:window-y="25"
     inkscape:window-maximized="0"
     inkscape:current-layer="svg30" />
  <path
     d="m 369.98773,104.90625 c 0,0 19.48438,-15.152344 52.67579,0 33.1914,15.15625 21.40625,67.34766 50.75,78.41016 14.01562,5.28515 24.41015,4.7539 31.44531,2.75781 4.45703,-1.26563 8.45703,3.0625 6.73047,7.36328 -8.74219,21.75781 -30.29688,60.47266 -68.48047,42.79297 -51.95313,-24.05078 -73.1211,-131.32422 -73.1211,-131.32422 z m 0,0"
     fill="#2b5d99"
     id="path2"
     style="stroke-width:1" />
  <path
     d="M 126.58148,48.726563 119.48773,0.5 c 0,0 -31.968745,19.414062 -41.851557,62.171876 C 67.75336,105.43359 126.58148,48.726563 126.58148,48.726563 Z m 0,0"
     fill="#bd4b1e"
     id="path4"
     style="stroke-width:1" />
  <path
     d="m 16.901798,149.74219 c 9.140625,-15.39063 59.167968,-93.800783 80.816406,-101.980471 21.648436,-8.175781 78.890626,17.320312 88.511716,38.964842 6.76172,15.214849 18.49219,80.542969 18.49219,80.542969 l 90.74219,-52.39062 c 32.53515,-18.781257 72.7539,-19.785162 105.51172,-1.39844 36.62109,20.55469 59.24218,59.25781 59.24218,101.17578 v 37.15234 l -17.66406,124.14063 c -0.84766,6.98438 -4.92969,13.16407 -11.02344,16.67969 -3.63672,2.10156 -15.18359,3.92968 -21.98437,0 l -4.98438,-2.875 c -7.91406,-4.57032 -13.14843,-12.64063 -14.10547,-21.73046 -1.83593,-17.41798 -2.61328,-36.64454 -16.375,-42.21876 -10.42968,-4.22265 -20.20312,-4.8086 -33.1914,2.64843 -20.44531,12.26563 -65.1836,52.67188 -71.35938,69.74611 -5.10937,54.76171 -3.20312,105.59375 -36.74218,107.39452 -35.67188,1.91797 -31.69532,-40.19141 -35.23829,-100.21875 -1.30078,-0.42578 -21.7539,-12.77733 -31.28906,-13.91016 -2.05859,19.2461 -8.96484,61.03516 -26.64453,61.98048 -29.39062,1.5664 -33.59766,-36.2422 -33.59766,-95.98438 -7.871088,-8.16407 -15.902338,-76.95702 -13.707026,-104.70703 -0.0039,0 -28.230469,-41.65625 -55.167969,-64.26563 C 10.202579,165.87891 7.7650788,165.13672 16.901798,149.74219 Z m 0,0"
     fill="#bd4b1e"
     id="path6"
     style="stroke-width:1" />
  <path
     d="M 88.09711,98.171873 51.976016,145.53516 c -2.519531,3.30468 -7.101562,4.22265 -10.703124,2.14453 -4.070313,-2.35157 -5.363282,-7.61719 -2.84375,-11.58594 l 25.375,-39.984373 z m 0,0"
     fill="#fff5ae"
     id="path8"
     style="stroke-width:1" />
  <path
     d="m 247.56195,122.80469 c 0,0 -16.59375,18.03906 -28.14062,10.10156 C 207.87836,124.96875 204.26898,90.695314 193.80805,66.164063 183.3432,41.628906 150.1518,26.117188 129.5893,24.3125 109.02289,22.507812 83.40961,43.79297 71.140079,60.390625 58.874454,76.984378 39.030704,87.808592 39.030704,87.808592 c 0,0 9.742188,19.843748 40.40625,18.039068 30.667966,-1.80469 66.386716,-35.718756 66.386716,-35.718756 0,0 35.35547,9.742189 39.32422,44.375006 2.58594,22.57031 3.82422,43.35156 15.08203,53.42578 11.25391,10.07422 53.10547,4.66406 47.33203,-45.125 z m 0,0"
     fill="#2b5d99"
     id="path10"
     style="stroke-width:1" />
  <path
     d="m 137.16352,80.953125 c 0,0 13.71093,-25.734375 23.08984,-38.242187 9.38281,-12.507813 15.15625,-15.632813 15.15625,-15.632813 0,0 12.02344,36.800782 3.84766,61.812499 -8.17969,25.015626 -42.09375,-7.937499 -42.09375,-7.937499 z m 0,0"
     fill="#bd4b1e"
     id="path12"
     style="stroke-width:1" />
  <path
     d="m 173.72211,41.507812 c 0,0 -10.13672,18.523438 -14.08594,31.269536 -3.95312,12.749999 7.62891,20.812499 14.08594,16.835934 6.46094,-3.976564 0,-48.10547 0,-48.10547 z m 0,0"
     fill="#ef5f26"
     id="path14"
     style="stroke-width:1" />
  <path
     d="M 13.054142,243.06641 C -10.168515,223.57812 2.7142978,179.79687 12.56586,158.22266 c 11.046875,0.0547 26.457032,2.89062 44.265625,13.91796 30.738281,19.03516 42.101563,55 35.476563,80.61329 0,0 -52.3125,12.92187 -79.253906,-9.6875 z m 0,0"
     fill="#fff5ae"
     id="path16"
     style="stroke-width:1" />
  <path
     d="m 118.13617,138.59375 c 0,6.0625 4.91016,10.97266 10.97266,10.97266 6.05859,0 10.97265,-4.91016 10.97265,-10.97266 0,-6.05859 -4.91406,-10.96875 -10.97265,-10.96875 -6.0625,0 -10.97266,4.91016 -10.97266,10.96875 z m 0,0"
     fill="#162f4d"
     id="path18"
     style="stroke-width:1" />
  <g
     fill="#a8431b"
     id="g28"
     transform="matrix(-1,0,0,1,511.99945,0)">
    <path
       d="m 371.91797,237.29297 c -20.17188,-9.6211 -36.51563,-18.76172 -36.51563,-18.76172 0,0 43.3711,63.30078 83.28125,74.02734 1.28907,-15.38672 1.77344,-30.10547 1.00782,-39.80468 0,0 -27.59375,-5.83985 -47.77344,-15.46094 z m 0,0"
       id="path20" />
    <path
       d="m 121.54688,368.02344 c 0.77734,-7.37891 1.375,-15.07422 2.83984,-21.92578 -9.49219,4.55078 -23.07813,7.98828 -38.898439,5.44531 -9.210937,-1.48047 -16.316406,-7.08594 -21.328125,-12.75 l 5.285156,37.16015 c 0.847657,6.98438 4.933594,13.16016 11.027344,16.67969 3.632813,2.09766 15.179688,3.92578 21.980474,0 l 4.98437,-2.8789 c 7.91406,-4.57032 13.14844,-12.64063 14.10938,-21.73047 z m 0,0"
       id="path22" />
    <path
       d="m 397.43359,397.02344 c -12.01562,11.59375 -29.4375,16.05468 -45.34375,10.98047 -1.55468,-0.4961 -2.98828,-1.0586 -4.29687,-1.66797 3.46484,20.42187 10.70312,46.36718 24.58984,47.10937 23.73828,1.26563 31.04688,-23.16406 32.98047,-64.07812 z m 0,0"
       id="path24" />
    <path
       d="m 246.56641,447.61328 c 3.36328,32.625 9.73046,56.75 32.64843,57.98047 30.15625,1.625 31.97266,-28.23047 33.95703,-73.77344 l -4.22656,4.17188 c -13.44531,13.26562 -32.60547,19.4414 -51.09765,15.60547 -4.33985,-0.90235 -8.2461,-2.23438 -11.28125,-3.98438 z m 0,0"
       id="path26" />
  </g>
</svg>
